PathFileType	4	(X/Y/Z)	./001.trc	
DataRate	CameraRate	NumFrames	NumMarkers	Units	OrigDataRate	OrigDataStartFrame	OrigNumFrames	
180	180	4	0	mm	180	119	951	
Frame#	Time	LIAS			RIAS			LIPS			RIPS			LFTC			RFTC			CV7			SJN			TV2			SXS			TV7			LAH			RAH			LPH			RPH			LHGT			LCAJ			LHLE			LUA			LHM2			LUSP			LRSP			RHGT			RCAJ			RHLE			RHME			RUA			RHM2			RUSP			RRSP			LFLE			LTH			LFAL			LTAM			LSK			LFAX			LTTC			LFM5			LFM2			LFM1			LFCC			LDP1			RFLE			RFME			RTH			RFAL			RTAM			RSK			RFAX			RTTC			RFM5			RFM2			RFM1			RFCC			RDP1			LHME				
		X1	Y1	Z1	X2	Y2	Z2	X3	Y3	Z3	X4	Y4	Z4	X5	Y5	Z5	X6	Y6	Z6	X7	Y7	Z7	X8	Y8	Z8	X9	Y9	Z9	X10	Y10	Z10	X11	Y11	Z11	X12	Y12	Z12	X13	Y13	Z13	X14	Y14	Z14	X15	Y15	Z15	X16	Y16	Z16	X17	Y17	Z17	X18	Y18	Z18	X19	Y19	Z19	X20	Y20	Z20	X21	Y21	Z21	X22	Y22	Z22	X23	Y23	Z23	X24	Y24	Z24	X25	Y25	Z25	X26	Y26	Z26	X27	Y27	Z27	X28	Y28	Z28	X29	Y29	Z29	X30	Y30	Z30	X31	Y31	Z31	X32	Y32	Z32	X33	Y33	Z33	X34	Y34	Z34	X35	Y35	Z35	X36	Y36	Z36	X37	Y37	Z37	X38	Y38	Z38	X39	Y39	Z39	X40	Y40	Z40	X41	Y41	Z41	X42	Y42	Z42	X43	Y43	Z43	X44	Y44	Z44	X45	Y45	Z45	X46	Y46	Z46	X47	Y47	Z47	X48	Y48	Z48	X49	Y49	Z49	X50	Y50	Z50	X51	Y51	Z51	X52	Y52	Z52	X53	Y53	Z53	X54	Y54	Z54	X55	Y55	Z55	X56	Y56	Z56		
	
1.190000000000000000e+02	6.555560000000000276e-01	-9.860299999999999443e+01	9.261810000000000400e+02	-9.558700000000000330e+01	-2.918930000000000291e+02	9.253050000000000637e+02	-2.256620000000000061e+02	-1.375499999999999901e+01	9.813079999999999927e+02	-3.407339999999999804e+02	-1.025919999999999987e+02	9.862149999999999181e+02	-4.044230000000000018e+02	1.315799999999999947e+01	8.144249999999999545e+02	-1.112960000000000065e+02	-3.082470000000000141e+02	8.184990000000000236e+02	-3.333439999999999941e+02	-6.273399999999999466e+01	1.378489000000000033e+03	-3.689169999999999732e+02	-1.600279999999999916e+02	1.326510999999999967e+03	-2.313639999999999759e+02	-4.856099999999999994e+01	1.292559999999999945e+03	-4.028890000000000100e+02	-1.882649999999999864e+02	1.219961000000000013e+03	-1.818539999999999850e+02	-4.803500000000000369e+01	1.164247000000000071e+03	-4.128120000000000118e+02	-5.347699999999999676e+01	1.612139999999999873e+03	-2.487500000000000000e+02	-1.787090000000000032e+02	1.607760999999999967e+03	-3.022420000000000186e+02	-3.439999999999999947e+00	1.545705000000000155e+03	-3.174819999999999709e+02	-1.262740000000000009e+02	1.551878000000000156e+03	-3.905520000000000209e+02	7.027100000000000080e+01	1.269540999999999940e+03	-3.175020000000000095e+02	4.321200000000000330e+01	1.344572000000000116e+03	-1.748969999999999914e+02	1.060840000000000032e+02	1.069181000000000040e+03	-6.254500000000000171e+01	1.339159999999999968e+02	1.129944999999999936e+03	-1.533299999999999841e+02	-1.811539999999999964e+02	1.169680000000000064e+03	-4.969599999999999795e+01	-1.428679999999999950e+02	1.080595000000000027e+03	-9.117000000000000171e+01	-1.312189999999999941e+02	1.170115000000000009e+03	-8.519200000000000728e+01	-1.753979999999999961e+02	1.288346000000000004e+03	-4.703220000000000027e+02	-2.289130000000000109e+02	1.365891000000000076e+03	-3.864130000000000109e+02	-4.111610000000000014e+02	1.093893000000000029e+03	-4.186999999999999886e+02	-3.017570000000000050e+02	1.035116999999999962e+03	-4.274039999999999964e+02	-3.201959999999999695e+02	1.172824000000000069e+03	-4.825999999999999659e+02	-3.256990000000000123e+02	1.162323000000000093e+03	-1.515939999999999941e+02	-3.339630000000000223e+02	1.068478000000000065e+03	-1.865840000000000032e+02	-2.796290000000000191e+02	1.133493999999999915e+03	-2.202019999999999982e+02	9.152799999999999159e+01	4.662740000000000009e+02	-1.494010000000000105e+02	-3.890200000000000102e+01	5.466809999999999263e+02	-8.549399999999999977e+01	1.436440000000000055e+02	1.158580000000000041e+02	-1.402239999999999895e+02	4.047099999999999653e+01	1.122049999999999983e+02	-1.711169999999999902e+02	5.757600000000000051e+01	2.887860000000000014e+02	-1.110769999999999982e+02	1.245969999999999942e+02	4.103450000000000273e+02	-1.702799999999999727e+02	-5.365000000000000213e+00	4.179329999999999927e+02	-1.140169999999999959e+02	1.056460000000000008e+02	6.269400000000000261e+01	-2.505299999999999727e+01	6.262199999999999989e+01	7.559100000000000819e+01	-4.046399999999999864e+01	1.853999999999999915e+01	5.947299999999999898e+01	-6.619100000000000250e+01	1.407729999999999961e+02	8.600600000000000023e+01	-2.326189999999999998e+02	3.467999999999999972e+00	5.396200000000000330e+01	-1.550900000000000034e+01	-2.477709999999999866e+02	4.545520000000000209e+02	-3.760089999999999577e+02	-4.630499999999999972e+01	4.164410000000000309e+02	-2.239929999999999950e+02	-2.940189999999999486e+02	6.567889999999999873e+02	-2.366679999999999779e+02	-1.950349999999999966e+02	9.386199999999999477e+01	-3.831080000000000041e+02	-1.197620000000000005e+02	1.005499999999999972e+02	-2.964919999999999618e+02	-2.147280000000000086e+02	1.752390000000000043e+02	-3.109250000000000114e+02	-2.324140000000000157e+02	4.038300000000000409e+02	-3.970330000000000155e+02	-2.421239999999999952e+02	3.997419999999999618e+02	-2.876210000000000377e+02	-2.683539999999999850e+02	5.673199999999999932e+01	-2.987259999999999991e+02	-2.462969999999999970e+02	6.852800000000000580e+01	-2.524259999999999877e+02	-2.201719999999999970e+02	5.954299999999999926e+01	-2.172669999999999959e+02	-1.058729999999999905e+02	6.524099999999999966e+01	-4.139410000000000309e+02	-2.473050000000000068e+02	5.338600000000000279e+01	-1.722450000000000045e+02	-1.064320000000000022e+02	4.461639999999999873e+02	-2.844559999999999604e+02
1.200000000000000000e+02	6.611110000000000042e-01	-9.861799999999999500e+01	9.261910000000000309e+02	-9.559300000000000352e+01	-2.919010000000000105e+02	9.253079999999999927e+02	-2.256749999999999829e+02	-1.375799999999999912e+01	9.813179999999999836e+02	-3.407379999999999995e+02	-1.025919999999999987e+02	9.862149999999999181e+02	-4.044279999999999973e+02	1.314599999999999902e+01	8.144240000000000919e+02	-1.112879999999999967e+02	-3.082500000000000000e+02	8.184990000000000236e+02	-3.333509999999999991e+02	-6.272800000000000864e+01	1.378492999999999938e+03	-3.689250000000000114e+02	-1.600389999999999873e+02	1.326524000000000115e+03	-2.313799999999999955e+02	-4.855199999999999960e+01	1.292550999999999931e+03	-4.028939999999999486e+02	-1.882659999999999911e+02	1.219980999999999995e+03	-1.818660000000000139e+02	-4.802799999999999869e+01	1.164234999999999900e+03	-4.128170000000000073e+02	-5.345899999999999608e+01	1.612142000000000053e+03	-2.487680000000000007e+02	-1.786870000000000118e+02	1.607757000000000062e+03	-3.022570000000000050e+02	-3.429999999999999716e+00	1.545697000000000116e+03	-3.175000000000000000e+02	-1.262580000000000098e+02	1.551865000000000009e+03	-3.905670000000000073e+02	7.028099999999999170e+01	1.269555000000000064e+03	-3.174979999999999905e+02	4.321000000000000085e+01	1.344586999999999989e+03	-1.748969999999999914e+02	1.060849999999999937e+02	1.069196999999999889e+03	-6.253000000000000114e+01	1.339170000000000016e+02	1.129965000000000146e+03	-1.532959999999999923e+02	-1.811800000000000068e+02	1.169677999999999884e+03	-4.969500000000000028e+01	-1.428860000000000241e+02	1.080608999999999924e+03	-9.114500000000001023e+01	-1.312300000000000182e+02	1.170112000000000080e+03	-8.518100000000001160e+01	-1.753850000000000193e+02	1.288345000000000027e+03	-4.703410000000000082e+02	-2.289060000000000059e+02	1.365898000000000138e+03	-3.864180000000000064e+02	-4.111779999999999973e+02	1.093909000000000106e+03	-4.187080000000000268e+02	-3.017909999999999968e+02	1.035116999999999962e+03	-4.274019999999999868e+02	-3.201959999999999695e+02	1.172840000000000146e+03	-4.826170000000000186e+02	-3.257129999999999654e+02	1.162327999999999975e+03	-1.516109999999999900e+02	-3.339909999999999854e+02	1.068483999999999924e+03	-1.866049999999999898e+02	-2.796200000000000045e+02	1.133493000000000166e+03	-2.202050000000000125e+02	9.152000000000001023e+01	4.662729999999999677e+02	-1.494060000000000059e+02	-3.891199999999999903e+01	5.466770000000000209e+02	-8.550300000000000011e+01	1.436409999999999911e+02	1.158590000000000089e+02	-1.402239999999999895e+02	4.047499999999999432e+01	1.122079999999999984e+02	-1.711090000000000089e+02	5.755799999999999983e+01	2.887870000000000346e+02	-1.110789999999999935e+02	1.245889999999999986e+02	4.103419999999999845e+02	-1.702740000000000009e+02	-5.358999999999999986e+00	4.179309999999999832e+02	-1.140130000000000052e+02	1.056550000000000011e+02	6.268600000000000705e+01	-2.506600000000000250e+01	6.262099999999999511e+01	7.559100000000000819e+01	-4.046799999999999642e+01	1.853700000000000259e+01	5.947299999999999898e+01	-6.617600000000000193e+01	1.407809999999999775e+02	8.600700000000000500e+01	-2.326169999999999902e+02	3.461999999999999744e+00	5.396000000000000085e+01	-1.551100000000000101e+01	-2.477750000000000057e+02	4.545469999999999686e+02	-3.760049999999999955e+02	-4.630799999999999983e+01	4.164439999999999600e+02	-2.239879999999999995e+02	-2.940339999999999918e+02	6.567870000000000346e+02	-2.366740000000000066e+02	-1.950409999999999968e+02	9.386700000000000443e+01	-3.831000000000000227e+02	-1.197680000000000007e+02	1.005429999999999922e+02	-2.964990000000000236e+02	-2.147290000000000134e+02	1.752400000000000091e+02	-3.109329999999999927e+02	-2.324150000000000205e+02	4.038240000000000123e+02	-3.970280000000000200e+02	-2.421230000000000189e+02	3.997379999999999995e+02	-2.876250000000000000e+02	-2.683550000000000182e+02	5.673199999999999932e+01	-2.987300000000000182e+02	-2.462989999999999782e+02	6.852700000000000102e+01	-2.524379999999999882e+02	-2.201889999999999930e+02	5.953200000000000358e+01	-2.172689999999999770e+02	-1.058729999999999905e+02	6.523600000000000421e+01	-4.139410000000000309e+02	-2.473050000000000068e+02	5.338700000000000045e+01	-1.722579999999999814e+02	-1.064339999999999975e+02	4.461600000000000250e+02	-2.844429999999999836e+02
1.210000000000000000e+02	6.666670000000000096e-01	-9.862899999999999068e+01	9.261890000000000782e+02	-9.559799999999999898e+01	-2.919080000000000155e+02	9.252949999999999591e+02	-2.256799999999999784e+02	-1.375000000000000000e+01	9.813159999999999172e+02	-3.407299999999999613e+02	-1.025879999999999939e+02	9.862140000000000555e+02	-4.044360000000000355e+02	1.313100000000000023e+01	8.144259999999999309e+02	-1.112849999999999966e+02	-3.082470000000000141e+02	8.184990000000000236e+02	-3.333479999999999563e+02	-6.271999999999999886e+01	1.378494000000000142e+03	-3.689259999999999877e+02	-1.600459999999999923e+02	1.326532000000000153e+03	-2.313890000000000100e+02	-4.854599999999999937e+01	1.292556000000000040e+03	-4.028959999999999582e+02	-1.882769999999999868e+02	1.219997000000000071e+03	-1.818799999999999955e+02	-4.802599999999999625e+01	1.164250000000000000e+03	-4.128160000000000309e+02	-5.343699999999999761e+01	1.612134999999999991e+03	-2.487860000000000014e+02	-1.786680000000000064e+02	1.607759999999999991e+03	-3.022740000000000009e+02	-3.403999999999999915e+00	1.545687999999999874e+03	-3.175129999999999768e+02	-1.262359999999999900e+02	1.551865999999999985e+03	-3.905840000000000032e+02	7.029100000000001103e+01	1.269570999999999913e+03	-3.174850000000000136e+02	4.319599999999999795e+01	1.344603000000000065e+03	-1.748959999999999866e+02	1.060720000000000027e+02	1.069218999999999824e+03	-6.250999999999999801e+01	1.339029999999999916e+02	1.129992000000000189e+03	-1.532880000000000109e+02	-1.811999999999999886e+02	1.169683999999999969e+03	-4.969100000000000250e+01	-1.428860000000000241e+02	1.080607999999999947e+03	-9.116200000000000614e+01	-1.312450000000000045e+02	1.170128000000000156e+03	-8.518299999999999272e+01	-1.753739999999999952e+02	1.288346999999999980e+03	-4.703439999999999941e+02	-2.288890000000000100e+02	1.365903000000000020e+03	-3.864349999999999454e+02	-4.111989999999999554e+02	1.093939999999999827e+03	-4.187280000000000086e+02	-3.018120000000000118e+02	1.035123000000000047e+03	-4.274080000000000155e+02	-3.202030000000000314e+02	1.172860000000000127e+03	-4.826299999999999955e+02	-3.257220000000000368e+02	1.162338999999999942e+03	-1.516119999999999948e+02	-3.340110000000000241e+02	1.068494999999999891e+03	-1.866150000000000091e+02	-2.796270000000000095e+02	1.133501999999999953e+03	-2.202249999999999943e+02	9.152400000000000091e+01	4.662780000000000200e+02	-1.494030000000000200e+02	-3.892199999999999704e+01	5.466779999999999973e+02	-8.551500000000000057e+01	1.436430000000000007e+02	1.158599999999999994e+02	-1.402119999999999891e+02	4.046000000000000085e+01	1.122100000000000080e+02	-1.711100000000000136e+02	5.755899999999999750e+01	2.887759999999999536e+02	-1.110769999999999982e+02	1.245439999999999969e+02	4.103340000000000032e+02	-1.702729999999999961e+02	-5.371999999999999886e+00	4.179279999999999973e+02	-1.140189999999999912e+02	1.056569999999999965e+02	6.268500000000000227e+01	-2.505699999999999861e+01	6.262400000000000233e+01	7.558899999999999864e+01	-4.046700000000000585e+01	1.853800000000000026e+01	5.946999999999999886e+01	-6.618000000000000682e+01	1.407889999999999873e+02	8.600900000000000034e+01	-2.326149999999999807e+02	3.463999999999999968e+00	5.396200000000000330e+01	-1.550999999999999979e+01	-2.477789999999999964e+02	4.545489999999999782e+02	-3.759979999999999905e+02	-4.630399999999999494e+01	4.164399999999999977e+02	-2.239879999999999995e+02	-2.940420000000000300e+02	6.567920000000000300e+02	-2.366730000000000018e+02	-1.950449999999999875e+02	9.386700000000000443e+01	-3.830950000000000273e+02	-1.197570000000000050e+02	1.005410000000000110e+02	-2.964830000000000041e+02	-2.147229999999999848e+02	1.752390000000000043e+02	-3.109250000000000114e+02	-2.324120000000000061e+02	4.038290000000000077e+02	-3.970280000000000200e+02	-2.421329999999999814e+02	3.997429999999999950e+02	-2.876179999999999950e+02	-2.683570000000000277e+02	5.672899999999999920e+01	-2.987239999999999895e+02	-2.463029999999999973e+02	6.852600000000001046e+01	-2.524290000000000020e+02	-2.201959999999999980e+02	5.954299999999999926e+01	-2.172659999999999911e+02	-1.058670000000000044e+02	6.523700000000000898e+01	-4.139410000000000309e+02	-2.473089999999999975e+02	5.338400000000000034e+01	-1.722579999999999814e+02	-1.064380000000000024e+02	4.461570000000000391e+02	-2.844269999999999641e+02
1.220000000000000000e+02	6.722219999999999862e-01	-9.864000000000000057e+01	9.261920000000000073e+02	-9.559900000000000375e+01	-2.919129999999999541e+02	9.252880000000000109e+02	-2.256870000000000118e+02	-1.374699999999999989e+01	9.813250000000000455e+02	-3.407359999999999900e+02	-1.025910000000000082e+02	9.862069999999999936e+02	-4.044460000000000264e+02	1.312999999999999901e+01	8.144270000000000209e+02	-1.112969999999999970e+02	-3.082590000000000146e+02	8.184990000000000236e+02	-3.333590000000000373e+02	-6.271000000000000085e+01	1.378497000000000071e+03	-3.689329999999999927e+02	-1.600370000000000061e+02	1.326546000000000049e+03	-2.314089999999999918e+02	-4.854100000000000392e+01	1.292554000000000087e+03	-4.028900000000000432e+02	-1.882919999999999732e+02	1.220027999999999793e+03	-1.818839999999999861e+02	-4.801099999999999568e+01	1.164247000000000071e+03	-4.128089999999999691e+02	-5.340999999999999659e+01	1.612138000000000147e+03	-2.488060000000000116e+02	-1.786520000000000152e+02	1.607759000000000015e+03	-3.023109999999999786e+02	-3.389000000000000234e+00	1.545683999999999969e+03	-3.175200000000000387e+02	-1.262089999999999890e+02	1.551860000000000127e+03	-3.906020000000000323e+02	7.029100000000001103e+01	1.269567999999999984e+03	-3.174839999999999804e+02	4.319200000000000017e+01	1.344625000000000000e+03	-1.748959999999999866e+02	1.060490000000000066e+02	1.069241999999999962e+03	-6.248199999999999932e+01	1.339089999999999918e+02	1.130003000000000156e+03	-1.532669999999999959e+02	-1.812159999999999798e+02	1.169692000000000007e+03	-4.969899999999999807e+01	-1.429029999999999916e+02	1.080621000000000095e+03	-9.112500000000000000e+01	-1.312770000000000152e+02	1.170131000000000085e+03	-8.517499999999999716e+01	-1.753729999999999905e+02	1.288345000000000027e+03	-4.703509999999999991e+02	-2.288820000000000050e+02	1.365906000000000176e+03	-3.864490000000000123e+02	-4.112120000000000459e+02	1.093965999999999894e+03	-4.187409999999999854e+02	-3.018340000000000032e+02	1.035143000000000029e+03	-4.274089999999999918e+02	-3.201860000000000355e+02	1.172860999999999876e+03	-4.826370000000000005e+02	-3.257379999999999995e+02	1.162358999999999924e+03	-1.516239999999999952e+02	-3.337090000000000032e+02	1.068333999999999833e+03	-1.866649999999999920e+02	-2.796510000000000105e+02	1.133504999999999882e+03	-2.202330000000000041e+02	9.152000000000001023e+01	4.662819999999999823e+02	-1.494080000000000155e+02	-3.892600000000000193e+01	5.466699999999999591e+02	-8.551899999999999125e+01	1.436389999999999816e+02	1.158569999999999993e+02	-1.402259999999999991e+02	4.046799999999999642e+01	1.122070000000000078e+02	-1.711090000000000089e+02	5.755600000000000449e+01	2.887799999999999727e+02	-1.110789999999999935e+02	1.245510000000000019e+02	4.103450000000000273e+02	-1.702849999999999966e+02	-5.375999999999999446e+00	4.179359999999999786e+02	-1.140219999999999914e+02	1.056449999999999960e+02	6.268700000000000472e+01	-2.506600000000000250e+01	6.261899999999999267e+01	7.559200000000001296e+01	-4.046199999999999619e+01	1.854299999999999926e+01	5.947100000000000364e+01	-6.618000000000000682e+01	1.407950000000000159e+02	8.600199999999999534e+01	-2.326189999999999998e+02	3.461000000000000298e+00	5.396200000000000330e+01	-1.550699999999999967e+01	-2.477810000000000059e+02	4.545509999999999877e+02	-3.760009999999999764e+02	-4.630299999999999727e+01	4.164399999999999977e+02	-2.239859999999999900e+02	-2.940480000000000018e+02	6.567859999999999445e+02	-2.366829999999999927e+02	-1.950500000000000114e+02	9.386299999999999955e+01	-3.830950000000000273e+02	-1.197600000000000051e+02	1.005439999999999969e+02	-2.964850000000000136e+02	-2.147309999999999945e+02	1.752460000000000093e+02	-3.109300000000000068e+02	-2.324209999999999923e+02	4.038260000000000218e+02	-3.970319999999999823e+02	-2.421329999999999814e+02	3.997299999999999613e+02	-2.876239999999999668e+02	-2.683509999999999991e+02	5.673299999999999699e+01	-2.987319999999999709e+02	-2.462930000000000064e+02	6.852900000000001057e+01	-2.524299999999999784e+02	-2.201949999999999932e+02	5.954999999999999716e+01	-2.172719999999999914e+02	-1.058599999999999994e+02	6.523600000000000421e+01	-4.139390000000000214e+02	-2.472969999999999970e+02	5.338899999999999579e+01	-1.722450000000000045e+02	-1.064419999999999931e+02	4.461659999999999968e+02	-2.844159999999999968e+02
